HIERARCHY
ROOT Pelvis
{
	OFFSET 0.000000 0.000000 0.000000
	CHANNELS 6 Xposition Yposition Zposition Zrotation Yrotation Xrotation 
	JOINT Left_hip
	{
		OFFSET 0.068973 -0.091024 -0.007589
		CHANNELS 3 Zrotation Yrotation Xrotation
		JOINT Left_knee
		{
			OFFSET 0.036482 -0.391037 -0.003979
			CHANNELS 3 Zrotation Yrotation Xrotation
			JOINT Left_ankle
			{
				OFFSET -0.012239 -0.415469 -0.043440
				CHANNELS 3 Zrotation Yrotation Xrotation
				JOINT Left_foot
				{
					OFFSET 0.023806 -0.058558 0.118702
					CHANNELS 3 Zrotation Yrotation Xrotation
					End Site
					{
						OFFSET 0.000000 0.000000 0.000000
					}
				}
			}
		}
	}
	JOINT Right_hip
	{
		OFFSET -0.066552 -0.090468 -0.003847
		CHANNELS 3 Zrotation Yrotation Xrotation
		JOINT Right_knee
		{
			OFFSET -0.042435 -0.398340 -0.006400
			CHANNELS 3 Zrotation Yrotation Xrotation
			JOINT Right_ankle
			{
				OFFSET 0.014931 -0.415421 -0.041327
				CHANNELS 3 Zrotation Yrotation Xrotation
				JOINT Right_foot
				{
					OFFSET -0.021472 -0.049410 0.121889
					CHANNELS 3 Zrotation Yrotation Xrotation
					End Site
					{
						OFFSET 0.000000 0.000000 0.000000
					}
				}
			}
		}
	}
	JOINT Spine1
	{
		OFFSET -0.002904 0.105700 -0.022855
		CHANNELS 3 Zrotation Yrotation Xrotation
		JOINT Spine2
		{
			OFFSET 0.004179 0.132554 -0.002501
			CHANNELS 3 Zrotation Yrotation Xrotation
			JOINT Spine3
			{
				OFFSET 0.001987 0.049603 0.025988
				CHANNELS 3 Zrotation Yrotation Xrotation
				JOINT Neck
				{
					OFFSET -0.003935 0.211336 -0.045638
					CHANNELS 3 Zrotation Yrotation Xrotation
					JOINT Head
					{
						OFFSET 0.003906 0.065991 0.051018
						CHANNELS 3 Zrotation Yrotation Xrotation
						End Site
						{
							OFFSET 0.000000 0.000000 0.000000
						}
					}
				}
				JOINT Left_collar
				{
					OFFSET 0.072882 0.117751 -0.036270
					CHANNELS 3 Zrotation Yrotation Xrotation
					JOINT Left_shoulder
					{
						OFFSET 0.082118 0.032630 -0.005771
						CHANNELS 3 Zrotation Yrotation Xrotation
						JOINT Left_elbow
						{
							OFFSET 0.263305 -0.015144 -0.028095
							CHANNELS 3 Zrotation Yrotation Xrotation
							JOINT Left_wrist
							{
								OFFSET 0.250741 0.010115 -0.000759
								CHANNELS 3 Zrotation Yrotation Xrotation
								JOINT Left_palm
								{
									OFFSET 0.080683 -0.009989 -0.013613
									CHANNELS 3 Zrotation Yrotation Xrotation
									End Site
									{
										OFFSET 0.000000 0.000000 0.000000
									}
								}
							}
						}
					}
				}
				JOINT Right_collar
				{
					OFFSET -0.074811 0.116132 -0.040385
					CHANNELS 3 Zrotation Yrotation Xrotation
					JOINT Right_shoulder
					{
						OFFSET -0.085089 0.032943 -0.007484
						CHANNELS 3 Zrotation Yrotation Xrotation
						JOINT Right_elbow
						{
							OFFSET -0.254763 -0.014219 -0.020321
							CHANNELS 3 Zrotation Yrotation Xrotation
							JOINT Right_wrist
							{
								OFFSET -0.256597 0.009233 -0.005063
								CHANNELS 3 Zrotation Yrotation Xrotation
								JOINT Right_palm
								{
									OFFSET -0.080528 -0.007219 -0.010379
									CHANNELS 3 Zrotation Yrotation Xrotation
									End Site
									{
										OFFSET 0.000000 0.000000 0.000000
									}
								}
							}
						}
					}
				}
			}
		}
	}
}
MOTION
Frames: 5
Frame Time: 0.100000
0.000000 0.000000 0.000000 176.714149 13.258465 -19.679833 13.482050 10.768696 17.019731 -2.033178 9.382183 -4.527451 -6.705246 11.169166 2.202344 5.966292 7.323399 -4.273605 -0.580267 -4.689447 12.766408 5.225767 -3.219871 -4.155201 2.355237 -2.978902 -1.301092 -0.453140 -6.013835 5.005534 2.255856 -3.321486 -0.364137 3.846545 -5.907799 7.730206 3.441936 -4.614951 -0.990063 5.654590 4.804179 5.978012 2.059910 -1.402014 -13.022840 -24.887338 -4.917200 7.059943 -50.565321 -5.056548 10.845786 2.892661 -40.594173 17.531187 -5.026117 -10.678472 8.678790 -10.462955 -2.931762 -20.213284 22.752420 6.990759 5.178720 49.091335 2.560985 12.180008 -6.213763 22.684248 8.022729 4.998938 3.881652 5.225818 9.376786 3.627868 -8.297936 
-0.015997 -0.001624 0.002604 176.518531 12.139950 -20.390268 13.327790 10.902929 18.312471 -2.145682 9.796515 -3.996874 -6.802254 11.212043 1.381418 6.251698 7.573200 -4.456288 -1.169019 -4.692519 13.830548 4.895739 -2.751537 -4.130678 3.644789 -2.788924 -0.870804 -2.003727 -5.547072 4.348769 2.549284 -3.506552 -1.380170 4.053128 -6.208244 7.489132 3.499362 -4.789679 -0.719566 5.521326 5.517534 6.157120 1.467498 -1.108159 -13.756324 -24.525803 -5.239810 7.607227 -51.545475 -4.321864 11.083395 0.524371 -40.800725 20.563120 -5.467237 -10.107711 9.143522 -10.981605 -3.321256 -21.413033 22.217890 7.186697 4.620962 49.392772 3.331255 12.062893 -6.074651 23.566288 8.170494 4.977487 3.428479 5.692232 10.021365 3.735624 -9.300813 
-0.032660 -0.002640 0.004244 176.458257 10.796304 -20.792232 12.915009 11.257380 20.066903 -2.416114 10.055274 -5.004655 -6.854763 11.470876 0.893076 6.459920 7.727309 -4.624691 -1.871002 -4.666823 14.520485 4.578268 -2.168561 -4.214707 5.189978 -2.712267 -0.363365 -3.665347 -5.113895 3.524251 2.960281 -3.739772 -2.309608 4.039327 -6.258890 7.038421 3.349457 -4.855209 -0.117430 5.494645 6.162975 5.956051 0.895594 -0.528765 -14.165240 -24.499823 -4.755925 8.503913 -52.964403 -2.487057 11.563805 -2.216602 -38.755193 24.799264 -6.569132 -9.349445 10.069412 -11.339892 -3.763382 -23.029654 21.696925 6.896458 4.027463 50.080819 3.975920 12.129113 -5.694377 23.704862 8.725434 5.001474 2.817937 5.964040 10.644752 3.892439 -10.480786 
-0.048161 -0.003134 0.003882 176.195761 10.026168 -21.219127 12.580426 11.346862 21.266513 -2.818005 10.245123 -5.566961 -7.461931 12.083668 -0.056847 7.866956 6.591206 -5.004337 -2.486594 -4.665403 15.045592 4.305103 -2.043596 -4.183602 6.561411 -2.130153 0.211165 -4.780617 -5.829330 2.718161 3.192819 -4.026884 -2.430004 4.051239 -5.703716 5.663404 3.526100 -4.877779 1.189852 4.899068 6.128327 5.505914 -0.279531 0.115808 -13.815347 -22.958460 -1.732571 9.654588 -54.712115 1.254914 12.399760 -8.036897 -43.886918 33.773755 -4.277151 -11.121121 8.576455 -10.774220 -2.863578 -23.600002 20.898853 5.038221 3.590780 50.727320 4.383544 11.601890 -4.562190 24.005881 10.018807 3.734644 2.978203 4.652455 9.415927 3.060175 -10.816981 
-0.062796 -0.003469 0.001813 175.844927 9.959063 -21.827727 12.099212 11.108933 21.808904 -2.982782 10.251360 -5.276999 -7.712435 12.681243 -1.130153 8.853237 5.325750 -5.228545 -3.072873 -4.745056 15.496150 4.009502 -2.433637 -3.861409 7.279560 -1.658959 0.768688 -4.756785 -6.606319 2.313089 3.085245 -3.795335 -2.736802 4.139192 -4.858869 5.299553 3.768036 -4.604617 2.215771 4.004406 5.809568 6.506470 -1.423874 0.192069 -13.076127 -21.246579 1.690310 10.428193 -56.069282 4.534259 12.882324 -14.213438 -48.764431 40.950255 -2.943849 -13.119582 5.862430 -10.159055 -1.733333 -23.614792 20.528758 3.238292 3.778909 51.159372 4.074908 11.038402 -3.753556 23.168545 10.089358 3.121079 3.612876 2.851942 8.029389 2.037136 -10.583959 
